<?xml version="1.0" encoding="utf-8"?>
<!-- Generator: Adobe Illustrator 17.0.0, SVG Export Plug-In . SVG Version: 6.00 Build 0)  -->
<!DOCTYPE svg PUBLIC "-//W3C//DTD SVG 1.1//EN" "http://www.w3.org/Graphics/SVG/1.1/DTD/svg11.dtd">
<svg version="1.1" id="Laag_1" xmlns="http://www.w3.org/2000/svg" xmlns:xlink="http://www.w3.org/1999/xlink" x="0px" y="0px"
	 width="240.945px" height="42.52px" viewBox="0 0 240.945 42.52" enable-background="new 0 0 240.945 42.52" xml:space="preserve">
<rect x="76.859" y="4.003" fill="#2D89C7" width="10.25" height="34.669"/>
<rect x="64.65" y="16.212" fill="#9FC555" width="34.669" height="10.25"/>
<polygon fill="#2D89C7" points="47.623,4.003 27.607,38.671 7.591,4.003 "/>
<polygon fill="#9FC555" points="67.639,4.003 47.623,38.671 27.607,4.003 "/>
<rect x="76.859" y="16.212" fill="#0F63A2" width="10.25" height="10.25"/>
<polygon fill="#0F63A2" points="47.623,4.003 27.607,4.003 37.615,21.337 "/>
<g>
	<path fill="#1D1E1C" d="M109.17,4.663h11.71c1.586,0,3.125,0.166,4.618,0.499c1.491,0.333,2.816,0.881,3.974,1.642
		c1.158,0.762,2.086,1.761,2.785,2.999c0.698,1.238,1.047,2.745,1.047,4.522c0,2.445-0.691,4.436-2.071,5.974
		c-1.38,1.54-3.261,2.579-5.641,3.118l8.997,14.947h-7.235l-7.807-14.28h-4.379v14.28h-5.998V4.663z M120.071,19.182
		c0.857,0,1.713-0.063,2.571-0.191c0.857-0.126,1.626-0.364,2.309-0.713c0.682-0.349,1.245-0.849,1.69-1.5
		c0.444-0.65,0.667-1.483,0.667-2.499c0-0.92-0.207-1.673-0.619-2.261c-0.413-0.587-0.936-1.054-1.571-1.404
		c-0.635-0.349-1.356-0.587-2.166-0.713c-0.809-0.127-1.594-0.191-2.356-0.191h-5.427v9.473H120.071z"/>
	<path fill="#1D1E1C" d="M155.106,11.708c-0.635-0.825-1.531-1.515-2.69-2.071c-1.159-0.555-2.325-0.833-3.499-0.833
		c-0.698,0-1.397,0.087-2.094,0.262c-0.698,0.175-1.333,0.444-1.904,0.809c-0.571,0.365-1.04,0.841-1.404,1.427
		c-0.365,0.588-0.547,1.294-0.547,2.118c0,0.762,0.158,1.413,0.476,1.952c0.317,0.539,0.754,0.999,1.309,1.38
		c0.555,0.38,1.229,0.714,2.023,0.999c0.793,0.286,1.666,0.571,2.618,0.857c1.079,0.349,2.197,0.746,3.356,1.189
		c1.158,0.445,2.221,1.032,3.19,1.761c0.968,0.73,1.761,1.651,2.38,2.761c0.619,1.111,0.928,2.492,0.928,4.141
		c0,1.809-0.333,3.388-1,4.736c-0.667,1.349-1.555,2.468-2.666,3.357c-1.111,0.889-2.412,1.555-3.903,1.999
		c-1.492,0.444-3.063,0.667-4.713,0.667c-2.19,0-4.332-0.405-6.426-1.214c-2.094-0.809-3.808-2.006-5.141-3.594l4.284-3.999
		c0.825,1.142,1.928,2.047,3.308,2.714c1.38,0.666,2.737,0.999,4.07,0.999c0.698,0,1.412-0.087,2.142-0.261
		c0.73-0.175,1.388-0.468,1.975-0.881c0.587-0.412,1.063-0.928,1.428-1.547c0.364-0.618,0.548-1.387,0.548-2.309
		c0-0.888-0.207-1.625-0.619-2.214c-0.413-0.587-0.968-1.094-1.666-1.523c-0.699-0.428-1.523-0.801-2.476-1.118
		c-0.952-0.317-1.951-0.65-2.999-0.999c-1.016-0.317-2.031-0.698-3.047-1.143c-1.016-0.444-1.928-1.03-2.737-1.761
		c-0.809-0.73-1.468-1.626-1.975-2.69c-0.508-1.063-0.762-2.388-0.762-3.975c0-1.713,0.357-3.19,1.071-4.427
		c0.714-1.238,1.65-2.261,2.809-3.071c1.158-0.809,2.475-1.411,3.951-1.809c1.475-0.396,2.975-0.595,4.498-0.595
		c1.714,0,3.451,0.302,5.213,0.904c1.761,0.604,3.292,1.508,4.594,2.714L155.106,11.708z"/>
	<path fill="#1D1E1C" d="M160.627,4.663h6.569l6.521,24.753h0.095l7.426-24.753h6.188l7.283,24.753h0.095l6.664-24.753h6.379
		l-9.854,33.702h-5.807l-7.902-25.277h-0.095l-7.902,25.277h-5.807L160.627,4.663z"/>
	<path fill="#1D1E1C" d="M210.657,4.663h10.996c1.935,0,3.681,0.175,5.236,0.523c1.555,0.349,2.887,0.92,3.999,1.713
		c1.11,0.794,1.967,1.809,2.57,3.047c0.602,1.237,0.905,2.73,0.905,4.475c0,1.873-0.35,3.443-1.047,4.712
		c-0.698,1.27-1.642,2.293-2.832,3.071c-1.19,0.778-2.579,1.341-4.165,1.689c-1.587,0.35-3.269,0.524-5.046,0.524h-4.618v13.947
		h-5.998V4.663z M220.843,19.372c0.983,0,1.92-0.071,2.809-0.214c0.888-0.143,1.682-0.396,2.38-0.761
		c0.698-0.365,1.253-0.865,1.666-1.5c0.412-0.634,0.619-1.459,0.619-2.475c0-0.984-0.207-1.785-0.619-2.404
		c-0.413-0.618-0.96-1.102-1.642-1.451c-0.683-0.349-1.46-0.579-2.333-0.69c-0.873-0.111-1.769-0.167-2.69-0.167h-4.379v9.663
		H220.843z"/>
</g>
</svg>
